<svg width="25" height="24" viewBox="0 0 25 24" fill="none" xmlns="http://www.w3.org/2000/svg">
<path d="M7.74 2H5.84C3.65 2 2.5 3.15 2.5 5.33V7.23C2.5 9.41 3.65 10.56 5.83 10.56H7.73C9.91 10.56 11.06 9.41 11.06 7.23V5.33C11.07 3.15 9.92 2 7.74 2Z" fill="#EAEAEA"/>
<path d="M19.1699 2H17.2699C15.0899 2 13.9399 3.15 13.9399 5.33V7.23C13.9399 9.41 15.0899 10.56 17.2699 10.56H19.1699C21.3499 10.56 22.4999 9.41 22.4999 7.23V5.33C22.4999 3.15 21.3499 2 19.1699 2Z" fill="#EAEAEA"/>
<path d="M19.1699 13.4301H17.2699C15.0899 13.4301 13.9399 14.5801 13.9399 16.7601V18.6601C13.9399 20.8401 15.0899 21.9901 17.2699 21.9901H19.1699C21.3499 21.9901 22.4999 20.8401 22.4999 18.6601V16.7601C22.4999 14.5801 21.3499 13.4301 19.1699 13.4301Z" fill="#EAEAEA"/>
<path d="M7.74 13.4301H5.84C3.65 13.4301 2.5 14.5801 2.5 16.7601V18.6601C2.5 20.8501 3.65 22.0001 5.83 22.0001H7.73C9.91 22.0001 11.06 20.8501 11.06 18.6701V16.7701C11.07 14.5801 9.92 13.4301 7.74 13.4301Z" fill="#EAEAEA"/>
</svg>
